<svg xmlns="http://www.w3.org/2000/svg" viewBox="0 0 512 512">
    <!-- Фон калькулятора -->
    <rect x="96" y="64" width="320" height="384" rx="32" ry="32" fill="#e0e0e0" />
    <rect x="112" y="80" width="288" height="368" rx="24" ry="24" fill="#f5f5f5" />

    <!-- Экран калькулятора -->
    <rect x="136" y="104" width="240" height="80" rx="8" ry="8" fill="#edf7ed" stroke="#9e9e9e" stroke-width="2" />
    <rect x="152" y="120" width="208" height="48" rx="4" ry="4" fill="#d7e8d7" />

    <!-- Цифры на экране -->
    <text x="336" y="156" font-family="monospace" font-size="32" font-weight="bold" text-anchor="end" fill="#333333">42.0</text>

    <!-- Кнопки калькулятора - верхний ряд -->
    <rect x="136" y="200" width="48" height="48" rx="24" ry="24" fill="#FF9E80" stroke="#9e9e9e" stroke-width="1" />
    <text x="160" y="232" font-family="sans-serif" font-size="24" font-weight="bold" text-anchor="middle" fill="#ffffff">C</text>

    <rect x="200" y="200" width="48" height="48" rx="24" ry="24" fill="#FF9E80" stroke="#9e9e9e" stroke-width="1" />
    <text x="224" y="232" font-family="sans-serif" font-size="24" font-weight="bold" text-anchor="middle" fill="#ffffff">±</text>

    <rect x="264" y="200" width="48" height="48" rx="24" ry="24" fill="#FF9E80" stroke="#9e9e9e" stroke-width="1" />
    <text x="288" y="232" font-family="sans-serif" font-size="24" font-weight="bold" text-anchor="middle" fill="#ffffff">%</text>

    <rect x="328" y="200" width="48" height="48" rx="24" ry="24" fill="#FF9500" stroke="#9e9e9e" stroke-width="1" />
    <text x="352" y="232" font-family="sans-serif" font-size="24" font-weight="bold" text-anchor="middle" fill="#ffffff">÷</text>

    <!-- Второй ряд -->
    <rect x="136" y="264" width="48" height="48" rx="24" ry="24" fill="#E0E0E0" stroke="#9e9e9e" stroke-width="1" />
    <text x="160" y="296" font-family="sans-serif" font-size="24" font-weight="bold" text-anchor="middle" fill="#333333">7</text>

    <rect x="200" y="264" width="48" height="48" rx="24" ry="24" fill="#E0E0E0" stroke="#9e9e9e" stroke-width="1" />
    <text x="224" y="296" font-family="sans-serif" font-size="24" font-weight="bold" text-anchor="middle" fill="#333333">8</text>

    <rect x="264" y="264" width="48" height="48" rx="24" ry="24" fill="#E0E0E0" stroke="#9e9e9e" stroke-width="1" />
    <text x="288" y="296" font-family="sans-serif" font-size="24" font-weight="bold" text-anchor="middle" fill="#333333">9</text>

    <rect x="328" y="264" width="48" height="48" rx="24" ry="24" fill="#FF9500" stroke="#9e9e9e" stroke-width="1" />
    <text x="352" y="296" font-family="sans-serif" font-size="24" font-weight="bold" text-anchor="middle" fill="#ffffff">×</text>

    <!-- Третий ряд -->
    <rect x="136" y="328" width="48" height="48" rx="24" ry="24" fill="#E0E0E0" stroke="#9e9e9e" stroke-width="1" />
    <text x="160" y="360" font-family="sans-serif" font-size="24" font-weight="bold" text-anchor="middle" fill="#333333">4</text>

    <rect x="200" y="328" width="48" height="48" rx="24" ry="24" fill="#E0E0E0" stroke="#9e9e9e" stroke-width="1" />
    <text x="224" y="360" font-family="sans-serif" font-size="24" font-weight="bold" text-anchor="middle" fill="#333333">5</text>

    <rect x="264" y="328" width="48" height="48" rx="24" ry="24" fill="#E0E0E0" stroke="#9e9e9e" stroke-width="1" />
    <text x="288" y="360" font-family="sans-serif" font-size="24" font-weight="bold" text-anchor="middle" fill="#333333">6</text>

    <rect x="328" y="328" width="48" height="48" rx="24" ry="24" fill="#FF9500" stroke="#9e9e9e" stroke-width="1" />
    <text x="352" y="360" font-family="sans-serif" font-size="24" font-weight="bold" text-anchor="middle" fill="#ffffff">-</text>

    <!-- Четвертый ряд -->
    <rect x="136" y="392" width="48" height="48" rx="24" ry="24" fill="#E0E0E0" stroke="#9e9e9e" stroke-width="1" />
    <text x="160" y="424" font-family="sans-serif" font-size="24" font-weight="bold" text-anchor="middle" fill="#333333">1</text>

    <rect x="200" y="392" width="48" height="48" rx="24" ry="24" fill="#E0E0E0" stroke="#9e9e9e" stroke-width="1" />
    <text x="224" y="424" font-family="sans-serif" font-size="24" font-weight="bold" text-anchor="middle" fill="#333333">2</text>

    <rect x="264" y="392" width="48" height="48" rx="24" ry="24" fill="#E0E0E0" stroke="#9e9e9e" stroke-width="1" />
    <text x="288" y="424" font-family="sans-serif" font-size="24" font-weight="bold" text-anchor="middle" fill="#333333">3</text>

    <rect x="328" y="392" width="48" height="48" rx="24" ry="24" fill="#FF9500" stroke="#9e9e9e" stroke-width="1" />
    <text x="352" y="424" font-family="sans-serif" font-size="24" font-weight="bold" text-anchor="middle" fill="#ffffff">+</text>

    <!-- Особенности дизайна Apple -->
    <circle cx="256" cy="48" r="8" fill="#bdbdbd" />

    <!-- Легкий блик -->
    <path d="M144 80 L368 80 L368 110 C368 110 320 130 256 130 C192 130 144 110 144 110 Z" fill="#ffffff" fill-opacity="0.2" />

    <!-- Легкая тень -->
    <rect x="96" y="64" width="320" height="384" rx="32" ry="32" fill="none" stroke="#9e9e9e" stroke-width="1" />
</svg>